<?xml version="1.0" standalone="no"?>
<!DOCTYPE svg PUBLIC "-//W3C//DTD SVG 20010904//EN"
 "http://www.w3.org/TR/2001/REC-SVG-20010904/DTD/svg10.dtd">
<svg version="1.0" xmlns="http://www.w3.org/2000/svg"
 width="300.000000pt" height="300.000000pt" viewBox="0 0 300.000000 300.000000"
 preserveAspectRatio="xMidYMid meet">
<metadata>
Created by potrace 1.10, written by Peter Selinger 2001-2011
</metadata>
<g transform="translate(0.000000,300.000000) scale(0.100000,-0.100000)"
fill="#000000" stroke="none">
<path d="M1905 2410 c-12 -4 -26 -14 -32 -21 -11 -14 -274 -467 -462 -796 -71
-126 -98 -164 -117 -169 -31 -8 -68 16 -90 59 -73 140 -340 597 -360 615 -23
20 -35 22 -150 22 -68 0 -124 -2 -124 -5 0 -2 82 -147 181 -322 100 -175 217
-381 261 -458 44 -77 88 -148 100 -157 17 -15 41 -18 163 -18 122 0 146 3 163
18 11 9 126 202 255 427 129 226 284 497 346 603 61 106 111 198 111 203 0 11
-217 11 -245 -1z m164 -29 c30 -3 7 -51 -148 -309 -35 -59 -92 -156 -126 -217
-34 -60 -105 -186 -159 -280 -138 -239 -136 -235 -161 -282 -13 -23 -33 -55
-45 -70 l-22 -28 -128 0 c-144 0 -154 4 -197 83 -11 20 -38 69 -61 107 -22 39
-53 95 -70 125 -34 64 -68 123 -93 165 -102 169 -219 381 -219 397 0 16 10 18
72 17 40 -1 82 -6 95 -12 25 -11 53 -52 127 -187 26 -47 51 -92 56 -100 6 -8
22 -37 37 -65 15 -27 32 -58 38 -67 5 -10 35 -61 65 -114 69 -121 109 -158
159 -150 44 6 83 48 129 138 34 66 58 108 122 218 20 36 81 142 135 235 178
309 214 367 233 381 23 16 89 22 161 15z"/>
<path d="M1948 1846 c-38 -68 -68 -127 -68 -132 0 -4 38 -76 85 -160 47 -84
85 -155 85 -158 0 -3 -78 -6 -173 -6 -153 0 -176 -2 -189 -17 -20 -22 -118
-193 -118 -204 0 -5 138 -10 307 -11 l307 -3 66 -118 c37 -65 73 -123 81 -128
20 -12 269 -12 269 1 0 6 -109 209 -242 453 -132 243 -261 479 -285 525 -25
45 -48 82 -51 82 -4 -1 -37 -56 -74 -124z m135 -46 c19 -36 53 -99 76 -140 22
-41 51 -95 63 -120 13 -25 25 -47 28 -50 3 -3 12 -18 20 -35 8 -16 33 -64 56
-105 22 -41 61 -113 86 -160 25 -47 64 -120 87 -162 33 -61 40 -79 29 -83 -8
-3 -52 -5 -98 -3 l-84 3 -47 80 c-84 143 -91 153 -117 165 -18 8 -98 10 -271
7 -135 -3 -254 -1 -263 4 -15 8 -13 15 18 71 19 34 42 67 50 73 10 7 70 12
152 13 165 3 191 7 201 35 10 27 4 40 -80 188 -40 71 -65 126 -63 141 2 24 71
148 89 160 14 10 28 -7 68 -82z"/>
<path d="M1155 1039 c-21 -10 -175 -266 -175 -290 0 -14 153 -99 177 -99 7 0
44 54 83 120 86 146 75 141 335 139 168 -1 188 1 207 17 29 27 71 102 63 114
-8 13 -662 12 -690 -1z m630 -43 c0 -10 -11 -27 -25 -37 -22 -17 -46 -19 -203
-20 -99 -1 -195 -5 -215 -10 -43 -9 -70 -39 -128 -141 -56 -99 -66 -104 -131
-71 -29 15 -55 34 -58 41 -3 8 4 31 16 51 37 62 62 105 76 133 8 15 28 39 45
53 l31 26 296 -3 c283 -3 296 -4 296 -22z"/>
<path d="M1404 811 c-19 -12 -52 -55 -88 -117 -54 -92 -56 -99 -39 -112 32
-24 134 -73 142 -68 9 6 181 300 181 310 0 3 -37 6 -82 6 -64 0 -90 -5 -114
-19z m123 -52 c-49 -92 -112 -191 -122 -196 -13 -4 -95 32 -95 42 0 20 66 131
95 159 27 27 44 36 77 38 50 3 63 -10 45 -43z"/>
</g>
</svg>
